# Blender v3.2.2 OBJ File: ''
# www.blender.org
mtllib camera.mtl
o Cube.001
v 0.520000 -0.480000 -1.020000
v 0.480000 -0.480000 -1.020000
v 0.480000 0.520000 -1.020000
v 0.520000 0.520000 -1.020000
v 0.520000 -0.480000 -0.020000
v 0.520000 -0.520000 -0.020000
v 0.520000 -0.520000 -0.980000
v 0.520000 -0.480000 -0.980000
v -0.480000 -0.480000 -1.020000
v -0.480000 -0.480000 -0.980000
v 0.480000 -0.480000 -0.980000
v 0.480000 -0.520000 -1.020000
v 0.520000 -0.520000 -1.020000
v 0.480000 -0.520000 -0.980000
v -0.480000 0.560012 -1.020000
v -0.480000 0.560012 -0.980000
v 0.480000 0.560012 -0.980000
v 0.480000 0.560012 -1.020000
v 0.520000 0.520000 -0.980000
v 0.480000 0.520000 -0.980000
v 0.520000 0.560012 -1.020000
v 0.520000 0.560012 -0.980000
v 0.480000 0.560012 -0.020000
v 0.520000 0.560012 -0.020000
v -0.520000 -0.480000 -1.020000
v -0.520000 0.520000 -1.020000
v -0.480000 0.520000 -1.020000
v -0.480000 -0.480000 -0.020000
v -0.480000 -0.520000 -0.020000
v -0.480000 -0.520000 -0.980000
v -0.520000 -0.520000 -0.980000
v -0.520000 -0.480000 -0.980000
v -0.520000 -0.520000 -1.020000
v -0.480000 -0.520000 -1.020000
v -0.520000 0.520000 -0.980000
v -0.520000 0.560012 -0.980000
v -0.520000 0.560012 -1.020000
v -0.480000 0.520000 -0.980000
v -0.520000 0.560012 -0.020000
v -0.480000 0.560012 -0.020000
v -0.520000 -0.480000 -0.020000
v -0.520000 0.520000 -0.020000
v -0.480000 0.520000 -0.020000
v 0.520000 0.560012 0.020000
v 0.480000 0.560012 0.020000
v 0.980000 0.868010 1.420000
v 1.020000 0.868010 1.420000
v -0.520000 -0.520000 0.020000
v -0.520000 -0.480000 0.020000
v -0.520000 -0.520000 -0.020000
v -0.480000 -0.520000 0.020000
v 0.480000 -0.520000 0.020000
v 0.480000 -0.480000 0.020000
v -0.480000 -0.480000 0.020000
v -0.520000 0.520000 0.020000
v -0.520000 0.560012 0.020000
v -0.480000 0.520000 0.020000
v -0.480000 0.560012 0.020000
v 0.480000 0.520000 0.020000
v 0.520000 0.520000 0.020000
v 1.020000 0.836000 1.420000
v 0.980000 0.836000 1.420000
v 0.480000 -0.480000 -0.020000
v 0.480000 0.520000 -0.020000
v 0.520000 0.520000 -0.020000
v -1.020001 -0.828005 1.420000
v -1.020001 -0.796005 1.420000
v 0.480000 -0.520000 -0.020000
v 0.520000 -0.520000 0.020000
v 0.520000 -0.480000 0.020000
v 1.020000 -0.796005 1.420000
v 1.020000 -0.828005 1.420000
v -0.980000 0.868010 1.420000
v -1.020001 0.868010 1.420000
v -1.020001 0.868010 1.460229
v -0.980000 0.868010 1.460229
v 1.020000 0.836000 1.460229
v 0.980000 0.836000 1.460229
v 0.980000 -0.796005 1.460229
v 1.020000 -0.796005 1.460229
v -0.980000 0.836000 1.460229
v -1.020001 0.836000 1.460229
v -1.020001 -0.796005 1.460229
v -0.980000 -0.796005 1.460229
v 0.980000 -0.828005 1.420000
v 1.020000 -0.828005 1.460229
v 0.980000 -0.828005 1.460229
v -0.980000 0.836000 1.420000
v -0.980000 -0.796005 1.420000
v -0.980000 -0.828005 1.420000
v 0.980000 -0.796005 1.420000
v -1.020001 0.836000 1.420000
v -0.980000 -0.828005 1.460229
v -1.020001 -0.828005 1.460229
v 1.020000 0.868010 1.460229
v 0.980000 0.868010 1.460229
vt 0.625000 0.500000
vt 0.625000 0.250000
vt 0.625000 0.250000
vt 0.625000 0.500000
vt 0.625000 0.500000
vt 0.375000 0.500000
vt 0.375000 0.750000
vt 0.625000 0.750000
vt 0.625000 0.500000
vt 0.625000 0.750000
vt 0.625000 0.000000
vt 0.125000 0.500000
vt 0.375000 0.500000
vt 0.125000 0.750000
vt 0.375000 0.250000
vt 0.625000 0.500000
vt 0.625000 0.750000
vt 0.875000 0.750000
vt 0.875000 0.500000
vt 0.625000 1.000000
vt 0.625000 0.750000
vt 0.625000 1.000000
vt 0.625000 0.000000
vt 0.625000 0.500000
vt 0.625000 0.750000
vt 0.875000 0.500000
vt 0.625000 0.500000
vt 0.625000 0.250000
vt 0.625000 0.250000
vt 0.625000 0.250000
vt 0.625000 0.500000
vt 0.625000 0.500000
vt 0.375000 0.500000
vt 0.375000 0.750000
vt 0.375000 0.000000
vt 0.625000 0.000000
vt 0.375000 0.250000
vt 0.125000 0.500000
vt 0.375000 0.500000
vt 0.125000 0.750000
vt 0.625000 0.000000
vt 0.625000 0.000000
vt 0.625000 0.250000
vt 0.625000 1.000000
vt 0.625000 0.750000
vt 0.625000 1.000000
vt 0.875000 0.500000
vt 0.875000 0.750000
vt 0.875000 0.500000
vt 0.625000 0.500000
vt 0.625000 0.250000
vt 0.625000 0.250000
vt 0.625000 0.500000
vt 0.625000 0.750000
vt 0.875000 0.750000
vt 0.875000 0.750000
vt 0.625000 0.750000
vt 0.375000 0.000000
vt 0.625000 0.000000
vt 0.375000 0.250000
vt 0.125000 0.500000
vt 0.375000 0.750000
vt 0.125000 0.750000
vt 0.375000 1.000000
vt 0.625000 1.000000
vt 0.625000 0.750000
vt 0.625000 0.000000
vt 0.625000 0.000000
vt 0.625000 0.250000
vt 0.625000 1.000000
vt 0.625000 0.750000
vt 0.625000 1.000000
vt 0.875000 0.750000
vt 0.625000 0.750000
vt 0.625000 1.000000
vt 0.625000 0.750000
vt 0.625000 0.750000
vt 0.625000 1.000000
vt 0.625000 0.250000
vt 0.625000 0.250000
vt 0.625000 0.500000
vt 0.375000 0.000000
vt 0.625000 0.000000
vt 0.125000 0.500000
vt 0.125000 0.750000
vt 0.375000 0.750000
vt 0.625000 0.750000
vt 0.625000 1.000000
vt 0.625000 0.000000
vt 0.625000 0.000000
vt 0.625000 0.750000
vt 0.375000 0.750000
vt 0.625000 0.250000
vt 0.625000 0.000000
vt 0.375000 0.250000
vt 0.375000 0.000000
vt 0.625000 0.750000
vt 0.875000 0.750000
vt 0.875000 0.750000
vt 0.625000 0.750000
vt 0.625000 0.750000
vt 0.625000 1.000000
vt 0.625000 1.000000
vt 0.625000 0.750000
vt 0.625000 0.750000
vt 0.625000 1.000000
vt 0.625000 1.000000
vt 0.625000 0.750000
vt 0.125000 0.750000
vt 0.375000 0.750000
vt 0.125000 0.750000
vt 0.625000 0.750000
vt 0.625000 0.750000
vt 0.375000 0.750000
vt 0.625000 1.000000
vt 0.625000 1.000000
vt 0.625000 1.000000
vt 0.625000 1.000000
vt 0.125000 0.750000
vt 0.375000 1.000000
vt 0.625000 0.000000
vt 0.625000 0.000000
vt 0.375000 0.750000
vt 0.375000 1.000000
vt 0.625000 1.000000
vt 0.375000 1.000000
vt 0.625000 0.750000
vt 0.625000 1.000000
vt 0.875000 0.750000
vt 0.625000 0.000000
vt 0.625000 0.000000
vt 0.375000 0.000000
vt 0.625000 0.000000
vt 0.125000 0.750000
vn 0.0000 0.0000 -1.0000
vn 1.0000 0.0000 -0.0000
vn -0.0000 1.0000 0.0000
vn 0.0000 -1.0000 0.0000
vn 0.0000 0.0000 1.0000
vn -1.0000 -0.0000 0.0000
vn 0.0000 0.9766 -0.2149
vn 0.0000 -0.9755 0.2202
vn -0.9417 0.0000 -0.3363
vn 0.9417 0.0000 -0.3363
vn 0.9417 0.0000 0.3363
vn 0.0000 0.9755 0.2202
vn 0.0000 -0.9766 -0.2149
vn -0.9417 -0.0000 0.3363
usemtl Material.001
s 1
f 1/1/1 2/2/1 3/3/1 4/4/1
f 5/5/2 6/6/2 7/7/2 8/8/2
f 9/9/3 10/10/3 11/11/3 2/2/3
f 12/12/4 13/13/4 7/7/4 14/14/4
f 13/13/2 1/1/2 8/8/2 7/7/2
f 12/15/1 2/2/1 1/1/1 13/13/1
f 15/16/3 16/17/3 17/18/3 18/19/3
f 11/20/5 8/8/5 19/21/5 20/22/5
f 2/2/6 11/11/6 20/23/6 3/3/6
f 8/8/2 1/1/2 4/4/2 19/21/2
f 21/24/3 18/19/3 17/18/3 22/25/3
f 23/26/3 24/27/3 22/25/3 17/18/3
f 4/4/1 3/3/1 18/28/1 21/24/1
f 19/21/2 4/4/2 21/24/2 22/25/2
f 9/9/1 25/29/1 26/30/1 27/31/1
f 28/32/2 29/33/2 30/34/2 10/10/2
f 31/35/6 32/36/6 25/29/6 33/37/6
f 33/38/4 34/39/4 30/34/4 31/40/4
f 34/39/1 9/9/1 2/2/1 12/15/1
f 33/37/1 25/29/1 9/9/1 34/39/1
f 26/30/6 35/41/6 36/42/6 37/43/6
f 32/44/5 10/10/5 38/45/5 35/46/5
f 25/29/6 32/36/6 35/41/6 26/30/6
f 10/10/2 9/9/2 27/31/2 38/45/2
f 15/16/3 37/47/3 36/48/3 16/17/3
f 39/49/3 40/50/3 16/17/3 36/48/3
f 27/31/1 26/30/1 37/43/1 15/16/1
f 27/31/1 15/16/1 18/28/1 3/3/1
f 28/32/1 41/51/1 42/52/1 43/53/1
f 44/54/7 45/55/7 46/56/7 47/57/7
f 48/58/6 49/59/6 41/51/6 50/60/6
f 50/61/4 29/33/4 51/62/4 48/63/4
f 52/64/5 53/65/5 54/66/5 51/62/5
f 41/51/3 28/32/3 10/10/3 32/44/3
f 42/52/6 55/67/6 56/68/6 39/69/6
f 49/70/5 54/66/5 57/71/5 55/72/5
f 41/51/6 49/59/6 55/67/6 42/52/6
f 54/66/2 28/32/2 43/53/2 57/71/2
f 40/50/3 39/49/3 56/73/3 58/74/3
f 59/75/8 60/76/8 61/77/8 62/78/8
f 42/52/6 39/69/6 36/42/6 35/41/6
f 45/55/3 23/26/3 40/50/3 58/74/3
f 5/5/1 63/79/1 64/80/1 65/81/1
f 49/59/9 48/58/9 66/82/9 67/83/9
f 68/84/4 52/85/4 51/62/4 29/33/4
f 68/84/4 6/6/4 69/86/4 52/85/4
f 6/6/2 5/5/2 70/87/2 69/86/2
f 63/79/3 5/5/3 8/8/3 11/20/3
f 59/75/5 45/88/5 58/74/5 57/71/5
f 53/65/5 70/87/5 60/76/5 59/75/5
f 63/79/6 53/89/6 59/90/6 64/80/6
f 70/87/2 5/5/2 65/81/2 60/76/2
f 24/27/3 23/26/3 45/55/3 44/54/3
f 69/86/10 70/87/10 71/91/10 72/92/10
f 64/80/6 23/93/6 17/94/6 20/23/6
f 60/76/2 65/81/2 24/27/2 44/54/2
f 24/27/2 65/81/2 19/21/2 22/25/2
f 65/81/4 64/80/4 20/22/4 19/21/4
f 6/6/4 68/84/4 14/14/4 7/7/4
f 68/95/6 63/79/6 11/11/6 14/96/6
f 23/93/1 64/80/1 43/53/1 40/50/1
f 64/80/4 59/90/4 57/71/4 43/53/4
f 53/89/3 63/79/3 28/32/3 54/66/3
f 63/79/1 68/95/1 29/33/1 28/32/1
f 29/33/4 50/61/4 31/40/4 30/34/4
f 50/60/6 41/51/6 32/36/6 31/35/6
f 40/50/2 43/53/2 38/45/2 16/17/2
f 43/53/4 42/52/4 35/46/4 38/45/4
f 16/17/5 38/45/5 20/23/5 17/94/5
f 38/45/4 27/31/4 3/3/4 20/23/4
f 10/10/5 30/34/5 14/96/5 11/11/5
f 30/34/4 34/39/4 12/12/4 14/14/4
f 73/97/3 74/98/3 75/99/3 76/100/3
f 77/101/5 78/102/5 79/103/5 80/104/5
f 81/105/5 82/106/5 83/107/5 84/108/5
f 85/109/4 72/92/4 86/110/4 87/111/4
f 57/71/11 58/74/11 73/97/11 88/112/11
f 51/62/11 54/66/11 89/113/11 90/114/11
f 70/87/12 53/65/12 91/115/12 71/91/12
f 55/72/8 57/71/8 88/112/8 92/116/8
f 58/74/7 56/73/7 74/98/7 73/97/7
f 54/66/12 49/70/12 67/117/12 89/113/12
f 52/85/13 69/86/13 72/92/13 85/109/13
f 45/88/14 59/75/14 62/78/14 46/118/14
f 48/63/13 51/62/13 90/114/13 66/119/13
f 53/65/14 52/64/14 85/120/14 91/115/14
f 56/68/9 55/67/9 92/121/9 74/122/9
f 60/76/10 44/54/10 47/57/10 61/77/10
f 93/123/5 84/108/5 83/107/5 94/124/5
f 82/106/5 81/105/5 76/100/5 75/125/5
f 86/110/5 80/104/5 79/103/5 87/126/5
f 78/102/5 77/101/5 95/127/5 96/128/5
f 47/57/3 46/56/3 96/129/3 95/127/3
f 74/122/6 92/121/6 82/130/6 75/131/6
f 78/102/5 96/128/5 76/100/5 81/105/5
f 62/78/4 78/102/4 81/105/4 88/112/4
f 67/83/6 66/82/6 94/132/6 83/133/6
f 61/77/2 47/57/2 95/127/2 77/101/2
f 87/126/5 79/103/5 84/108/5 93/123/5
f 85/109/4 87/111/4 93/123/4 90/114/4
f 72/92/2 71/91/2 80/104/2 86/110/2
f 88/112/2 81/105/2 84/108/2 89/113/2
f 61/77/2 77/101/2 80/104/2 71/91/2
f 66/119/4 90/114/4 93/123/4 94/134/4
f 96/129/3 46/56/3 73/97/3 76/100/3
f 46/118/1 62/78/1 88/112/1 73/97/1
f 79/103/3 91/115/3 89/113/3 84/108/3
f 91/115/1 85/120/1 90/114/1 89/113/1
f 82/130/6 92/121/6 67/83/6 83/133/6
f 92/116/1 88/112/1 89/113/1 67/117/1
f 78/102/6 62/78/6 91/115/6 79/103/6
f 62/78/1 61/77/1 71/91/1 91/115/1
