# Blender v2.92.0 OBJ File: ''
# www.blender.org
mtllib wireframe_cube.mtl
o Cube.001
v -0.990000 -0.990000 -1.010000
v -0.990000 -1.010000 -1.010000
v -0.990000 -0.990000 -0.990000
v -0.990000 -1.010000 -0.990000
v -1.010000 -0.990000 -1.010000
v -1.010000 -1.010000 -1.010000
v -1.010000 -0.990000 -0.990000
v -1.010000 -1.010000 -0.990000
v -0.990000 1.010000 -0.990000
v -1.010000 1.010000 -0.990000
v -0.990000 1.010000 -1.010000
v -1.010000 1.010000 -1.010000
v -0.990000 1.030006 -0.990000
v -1.010000 1.030006 -0.990000
v -0.990000 1.030006 -1.010000
v -1.010000 1.030006 -1.010000
v -0.990000 -0.990000 0.990000
v -0.990000 -1.010000 0.990000
v -0.990000 -0.990000 1.010000
v -0.990000 -1.010000 1.010000
v -1.010000 -0.990000 0.990000
v -1.010000 -1.010000 0.990000
v -1.010000 -0.990000 1.010000
v -1.010000 -1.010000 1.010000
v -0.990000 1.010000 1.010000
v -1.010000 1.010000 1.010000
v -0.990000 1.010000 0.990000
v -1.010000 1.010000 0.990000
v -0.990000 1.030006 1.010000
v -1.010000 1.030006 1.010000
v -0.990000 1.030006 0.990000
v -1.010000 1.030006 0.990000
v 1.010000 -0.990000 0.990000
v 1.010000 -1.010000 0.990000
v 1.010000 -0.990000 1.010000
v 1.010000 -1.010000 1.010000
v 0.990000 -0.990000 0.990000
v 0.990000 -1.010000 0.990000
v 0.990000 -0.990000 1.010000
v 0.990000 -1.010000 1.010000
v 1.010000 1.010000 1.010000
v 0.990000 1.010000 1.010000
v 1.010000 1.010000 0.990000
v 0.990000 1.010000 0.990000
v 1.010000 1.030006 1.010000
v 0.990000 1.030006 1.010000
v 1.010000 1.030006 0.990000
v 0.990000 1.030006 0.990000
v 1.010000 -0.990000 -1.010000
v 1.010000 -1.010000 -1.010000
v 1.010000 -0.990000 -0.990000
v 1.010000 -1.010000 -0.990000
v 0.990000 -0.990000 -1.010000
v 0.990000 -1.010000 -1.010000
v 0.990000 -0.990000 -0.990000
v 0.990000 -1.010000 -0.990000
v 1.010000 1.010000 -0.990000
v 0.990000 1.010000 -0.990000
v 1.010000 1.010000 -1.010000
v 0.990000 1.010000 -1.010000
v 1.010000 1.030006 -0.990000
v 0.990000 1.030006 -0.990000
v 1.010000 1.030006 -1.010000
v 0.990000 1.030006 -1.010000
vt 0.625000 0.500000
vt 0.625000 0.250000
vt 0.625000 0.250000
vt 0.625000 0.500000
vt 0.625000 0.500000
vt 0.375000 0.500000
vt 0.375000 0.750000
vt 0.625000 0.750000
vt 0.375000 0.000000
vt 0.625000 0.000000
vt 0.375000 0.250000
vt 0.125000 0.500000
vt 0.375000 0.500000
vt 0.125000 0.750000
vt 0.375000 1.000000
vt 0.625000 1.000000
vt 0.625000 0.000000
vt 0.625000 0.000000
vt 0.625000 0.250000
vt 0.625000 1.000000
vt 0.625000 0.750000
vt 0.625000 1.000000
vt 0.625000 0.500000
vt 0.875000 0.500000
vt 0.875000 0.750000
vt 0.625000 0.750000
vt 0.875000 0.500000
vt 0.625000 0.500000
vt 0.875000 0.750000
vt 0.875000 0.500000
vt 0.625000 0.250000
vt 0.625000 0.250000
vt 0.625000 0.500000
vt 0.375000 0.750000
vt 0.625000 0.750000
vt 0.625000 1.000000
vt 0.375000 1.000000
vt 0.375000 0.000000
vt 0.625000 0.000000
vt 0.375000 0.250000
vt 0.125000 0.500000
vt 0.125000 0.750000
vt 0.375000 1.000000
vt 0.625000 1.000000
vt 0.625000 0.000000
vt 0.625000 0.000000
vt 0.625000 0.250000
vt 0.625000 0.750000
vt 0.625000 1.000000
vt 0.875000 0.750000
vt 0.625000 0.750000
vt 0.625000 1.000000
vt 0.875000 0.750000
vt 0.875000 0.500000
vt 0.625000 0.500000
vt 0.625000 0.250000
vt 0.625000 0.250000
vt 0.625000 0.500000
vt 0.375000 0.750000
vt 0.625000 0.750000
vt 0.125000 0.500000
vt 0.125000 0.750000
vt 0.375000 0.500000
vt 0.625000 0.750000
vt 0.625000 1.000000
vt 0.625000 1.000000
vt 0.625000 0.750000
vt 0.625000 0.000000
vt 0.625000 0.000000
vt 0.625000 0.500000
vt 0.625000 0.750000
vt 0.625000 0.750000
vt 0.625000 0.500000
vt 0.625000 0.250000
vt 0.625000 0.250000
vt 0.625000 0.500000
vt 0.375000 0.750000
vt 0.125000 0.500000
vt 0.125000 0.750000
vt 0.375000 0.500000
vt 0.375000 0.250000
vt 0.625000 0.000000
vt 0.625000 0.000000
vt 0.625000 0.750000
vt 0.625000 1.000000
vt 0.625000 0.000000
vt 0.625000 0.500000
vt 0.625000 0.250000
vt 0.625000 0.250000
vt 0.375000 0.250000
vn 0.0000 0.0000 -1.0000
vn 1.0000 0.0000 0.0000
vn -1.0000 0.0000 0.0000
vn 0.0000 -1.0000 0.0000
vn 0.0000 0.0000 1.0000
vn 0.0000 1.0000 0.0000
usemtl Material
s off
f 1/1/1 5/2/1 12/3/1 11/4/1
f 17/5/2 18/6/2 4/7/2 3/8/2
f 8/9/3 7/10/3 5/2/3 6/11/3
f 6/12/4 2/13/4 4/7/4 8/14/4
f 56/15/5 55/16/5 3/8/5 4/7/5
f 6/11/1 5/2/1 1/1/1 2/13/1
f 12/3/3 10/17/3 14/18/3 16/19/3
f 7/20/5 3/8/5 9/21/5 10/22/5
f 5/2/3 7/10/3 10/17/3 12/3/3
f 3/8/2 1/1/2 11/4/2 9/21/2
f 15/23/6 16/24/6 14/25/6 13/26/6
f 32/27/6 31/28/6 13/26/6 14/25/6
f 11/4/1 12/3/1 16/19/1 15/23/1
f 62/29/6 64/30/6 15/23/6 13/26/6
f 17/5/1 21/31/1 28/32/1 27/33/1
f 20/34/5 19/35/5 23/36/5 24/37/5
f 24/38/3 23/39/3 21/31/3 22/40/3
f 22/41/4 18/6/4 20/34/4 24/42/4
f 40/43/5 39/44/5 19/35/5 20/34/5
f 21/31/6 17/5/6 3/8/6 7/20/6
f 28/32/3 26/45/3 30/46/3 32/47/3
f 23/36/5 19/35/5 25/48/5 26/49/5
f 21/31/3 23/39/3 26/45/3 28/32/3
f 19/35/2 17/5/2 27/33/2 25/48/2
f 31/28/6 32/27/6 30/50/6 29/51/6
f 26/49/5 25/48/5 29/51/5 30/52/5
f 28/32/3 32/47/3 14/18/3 10/17/3
f 46/53/6 48/54/6 31/28/6 29/51/6
f 33/55/1 37/56/1 44/57/1 43/58/1
f 36/59/5 35/60/5 39/44/5 40/43/5
f 38/61/4 40/62/4 20/34/4 18/6/4
f 38/61/4 34/63/4 36/59/4 40/62/4
f 34/63/2 33/55/2 35/60/2 36/59/2
f 51/64/6 55/16/6 37/56/6 33/55/6
f 42/65/5 46/66/5 29/51/5 25/48/5
f 39/44/5 35/60/5 41/67/5 42/65/5
f 37/56/3 39/68/3 42/69/3 44/57/3
f 35/60/2 33/55/2 43/58/2 41/67/2
f 47/70/6 48/54/6 46/53/6 45/71/6
f 42/65/5 41/67/5 45/71/5 46/66/5
f 61/72/6 62/29/6 48/54/6 47/70/6
f 41/67/2 43/58/2 47/70/2 45/71/2
f 49/73/1 53/74/1 60/75/1 59/76/1
f 52/77/2 51/64/2 33/55/2 34/63/2
f 54/78/4 56/79/4 4/7/4 2/13/4
f 54/78/4 50/80/4 52/77/4 56/79/4
f 50/80/2 49/73/2 51/64/2 52/77/2
f 54/81/1 53/74/1 49/73/1 50/80/1
f 58/82/5 62/83/5 13/26/5 9/21/5
f 55/16/5 51/64/5 57/84/5 58/85/5
f 53/74/3 55/86/3 58/82/3 60/75/3
f 51/64/2 49/73/2 59/76/2 57/84/2
f 63/87/6 64/30/6 62/29/6 61/72/6
f 57/84/2 61/72/2 47/70/2 43/58/2
f 59/76/1 60/75/1 64/88/1 63/87/1
f 57/84/2 59/76/2 63/87/2 61/72/2
f 48/89/1 44/57/1 27/33/1 31/28/1
f 44/57/4 42/69/4 25/48/4 27/33/4
f 39/68/6 37/56/6 17/5/6 19/35/6
f 37/56/1 38/90/1 18/6/1 17/5/1
f 55/86/6 53/74/6 1/1/6 3/8/6
f 53/74/1 54/81/1 2/13/1 1/1/1
f 55/16/3 56/15/3 38/90/3 37/56/3
f 56/79/4 52/77/4 34/63/4 38/61/4
f 62/83/3 58/82/3 44/57/3 48/89/3
f 58/85/4 57/84/4 43/58/4 44/57/4
f 31/28/2 27/33/2 9/21/2 13/26/2
f 27/33/4 28/32/4 10/22/4 9/21/4
f 18/6/4 22/41/4 8/14/4 4/7/4
f 22/40/3 21/31/3 7/10/3 8/9/3
f 64/88/1 60/75/1 11/4/1 15/23/1
f 60/75/4 58/82/4 9/21/4 11/4/4
